<svg width="48" height="48" viewBox="0 0 48 48" fill="none" xmlns="http://www.w3.org/2000/svg">
<path d="M47.4375 33.7551C47.4375 38.9172 43.2141 43.1406 38.052 43.1406H9.948C4.78594 43.1406 0.5625 38.9172 0.5625 33.7551V9.55739C0.5625 4.3953 4.78594 0.171875 9.948 0.171875H38.0516C43.2141 0.171875 47.4375 4.3953 47.4375 9.55739V33.7551Z" fill="url(#paint0_linear)"/>
<path d="M38.052 43.1406H9.948C4.78594 43.1406 0.5625 38.9172 0.5625 33.7551V37.6613C0.5625 42.8234 4.78594 47.0469 9.948 47.0469H38.0516C43.2141 47.0469 47.4375 42.8234 47.4375 37.6613V33.7551C47.4375 38.9172 43.2141 43.1406 38.052 43.1406Z" fill="#115A91"/>
<path d="M41.9688 32.9711C41.9688 35.5672 39.8641 37.6719 37.268 37.6719H10.732C8.13594 37.6719 6.03125 35.5672 6.03125 32.9711V10.3414C6.03125 7.74529 8.13594 5.64059 10.732 5.64059H37.268C39.8641 5.64059 41.9688 7.74529 41.9688 10.3414V32.9711Z" fill="white"/>
<path d="M22.0469 9.54691V15.0156H15.4062V27.5156H22.0469V33.375H9.54691V9.54691H22.0469Z" fill="#4D4D4D"/>
<path d="M37.6719 9.54691V33.375H25.1719V27.5156H32.2031V15.0156H25.1719V9.54691H37.6719Z" fill="#4D4D4D"/>
<defs>
<linearGradient id="paint0_linear" x1="24" y1="0.171875" x2="24" y2="43.1406" gradientUnits="userSpaceOnUse">
<stop stop-color="#29ABE2"/>
<stop offset="0.4757" stop-color="#28A9E1"/>
<stop offset="0.6639" stop-color="#23A2DC"/>
<stop offset="0.8012" stop-color="#1A96D4"/>
<stop offset="0.913" stop-color="#0E85C9"/>
<stop offset="1" stop-color="#0071BC"/>
</linearGradient>
</defs>
</svg>
